<svg xmlns="http://www.w3.org/2000/svg" width="80" height="122"><g style="display:inline"><path d="M947.15 519.787c0 85.59-69.383 154.974-154.973 154.974s-154.974-69.385-154.974-154.974c0-85.59 69.384-154.975 154.974-154.975S947.15 434.197 947.15 519.787" style="fill:none;stroke:#000;stroke-width:6.9165659;stroke-linecap:round;stroke-linejoin:round;stroke-miterlimit:4;stroke-opacity:1;stroke-dasharray:none" transform="matrix(.2489 0 0 .24977 -157.176 -68.746)"/><path d="m111.781 191.125-24.656 7.188C69.752 303.142 31.5 514.906 31.5 514.906s2.156.441 6.25-.875c6.371-2.39 19.469-6.187 19.469-6.187l29.75-155.75 13.531-.25c8.862-.166 19.424-1.374 26-5.594 10.066-6.46 14.685-15.232 18.5-35.219 2.705-15.596 5.725-31.133 8.125-46.781 3.715-26.36 5.627-36.465-1.094-48.937-4.165-7.73-26.497-11.709-36.812-6.563-3.385 1.689-6.719 3.656-6.719 3.656zm9.094 39.813a20 20 0 0 1 1.625 0c8.604.315 10.505 4.403 8.031 17.312-2.75 14.351-7.933 43.161-9.094 50.5-2.51 15.878-3.609 19.639-6.53 22.531-2.517 2.49-3.865 3.125-10.407 3.406-16.72.72-15.152 1.994-11.094-20.25a5434 5434 0 0 0 6.156-34.687c2.297-13.2 3.405-18.243 5.438-25.5.579-2.067 1.346-4.16 2.594-5.906 1.317-1.844 3.022-3.489 5-4.594 2.625-1.467 4.689-2.657 8.281-2.812M16.015 32.898l26.235-7.255-31.81 183.87s4.916-1.862 8.457-2.566c7.027-1.398 14.806-2.474 21.495.095 5.67 2.177 10.248 5.926 13.59 12.134 4.616 9.11 2.31 29.392-.302 41.078-11.966 59.003-16.033 84.254-16.033 84.254l-24.994 7.722L30.03 247.852s1.586-11.07-.25-13.69c-2.3-3.284-10.53-3.53-15.384-1.775-3.57 1.292-5.772 3.85-7.861 8.243-2.09 4.392-2.25 5.518-4.025 12.61-6.122 29.855-12.194 59.15-18.186 88.745l-25.403 9.995z" style="fill:#000;fill-opacity:1;stroke:none" transform="translate(26.61 -5.596)scale(.24637)"/></g></svg>