<svg xmlns="http://www.w3.org/2000/svg" xml:space="preserve" width="548.639" height="664.721" overflow="visible" viewBox="0 0 548.639 664.721"><path d="M388.798 106.003V88.146h6.91c1.152 0 2.305 0 3.168.576 1.44.865 2.594 2.592 2.594 4.896 0 2.88-1.727 4.607-4.61 5.184 1.153.576 5.763 7.2 5.763 7.2h-2.594s-4.605-6.911-6.621-6.911h-2.594v6.912zm2.016-9.217h4.609c.863 0 1.727 0 2.3-.576.868-.576 1.442-1.44 1.442-2.592 0-2.016-1.152-3.168-3.457-3.168h-4.895zm-12.098.287a16.103 16.103 0 0 1 16.129-16.127 16.1 16.1 0 0 1 16.129 16.127 16.1 16.1 0 0 1-16.13 16.129 16.103 16.103 0 0 1-16.128-16.13M363.955.008c-2.496-.185-2.624 2.965-5.396 3.469-2.015-4.031-4.895 0-7.774-1.44v-.289c-3.168-1.439-4.03 2.305-6.047 3.457-1.152-1.439-1.44-4.32-4.035-4.031-1.727.287-2.016 1.44-2.59 2.592-1.153 1.44-1.73-.29-2.883-.29-3.164-1.728-3.742 2.882-6.91 1.153-1.726 2.015-5.183-.577-7.199 1.44-2.305 1.728-4.032-1.153-5.762-1.44-2.015-.576-2.304 2.592-4.32 2.88-.575-.575-1.438-.863-1.727-1.439-2.594-.864-3.456 1.44-5.183 1.44-2.593 1.15.288 3.455-1.442 4.607-.575.863-1.437 0-2.304-.289-.285-1.15.867-1.44.578-2.592-.578-1.15-2.305 0-2.594-1.15-3.743-1.152-4.894 2.592-8.351 2.016-.863 3.168 3.456 1.152 2.591 4.607-.287.289-.287.576-.863 1.152-1.728-.576-2.88.863-4.607.287-2.881-2.016 1.726-2.878.576-5.183-2.305-.863-3.744-2.305-5.473-.576-3.168-1.728-3.744 3.167-6.623 2.591-1.729 2.017-4.896-.286-6.625.866-2.016.863 1.44 1.727.29 3.168-.866.863-1.443 2.015-2.595 1.44v-2.018h-.574c-.865-.577.287-1.153 0-2.018-.865-.287-2.594.289-2.594-1.15l-6.046 4.607c-1.44-.863-2.593-1.728-4.032-1.44-2.305 2.016-4.32 2.303-7.2 1.44-2.882.863-5.473 1.44-8.352 2.592-3.457-.287-5.762 3.458-8.643 5.185-5.184.29-10.657.865-14.975 2.881 1.151 6.046-6.048 1.15-8.064 4.606-5.185-.864-8.064 2.015-13.248 1.44-.29.575-.865 1.728.287 2.304-.287.863.289 2.016-.576 2.592-2.016 0-3.744-1.438-6.047-.862-1.728.287-3.457 1.152-4.033 3.168-3.744-.865-5.182 1.44-7.487 3.168 0 1.44-1.441.862-2.593 1.15-1.726.577-2.878 2.88-4.03 4.032-.289-.287-.863-.576-.863-.863-1.44-1.153-3.457-.29-4.033 1.439l.576.29c.29 1.438-.576 2.591-1.728 3.167-2.015-2.594-5.184-.289-7.487 0-2.88 2.592 1.438 4.318 1.149 6.623-1.44 0-1.724 2.016-3.453 1.729-.29-1.152-2.307-1.728-1.73-3.457h-4.321c0 .289.002.865-.285.865-.577 0-1.444.287-2.018-.29-2.016 2.016-4.896 2.882-6.912 4.321-1.153 2.016-2.305 4.32-5.473 3.168-.576 4.031-5.183 2.015-7.488 3.744.289 8.064-10.941 3.456-10.941 11.233-1.44 2.016-3.746 1.726-5.762 2.302-3.457.865-4.32 3.744-5.473 6.05l-4.031 1.439c-4.32 2.015 2.592 2.591-.865 4.896-1.727-.863-4.32-.863-6.623-.287.576 2.303-1.73 2.016-2.592 3.168.863 2.302-2.592 2.015-2.592 4.031 2.303 2.88-2.018 2.303-2.88 4.319-4.033-1.442-5.473 4.32-8.641 4.607-.574 1.439-1.151 3.744.576 4.896l-1.15 1.153-.577-.29c-2.018-.575-4.033-.575-5.472.866 1.153 2.015-2.305 2.303-1.153 3.744-.863 1.151-1.439 3.455-3.455 2.592-.865 1.15-3.744.576-2.594 3.168 0 2.016-.573 4.318-2.591 4.894 0 1.152-.576 2.305.289 2.881-.577.577-1.153 1.44-1.729 1.729-.576-1.442-1.152-2.881-3.168-2.592-2.016-.576-1.44 2.303-2.305 3.455.576 1.728 1.152 5.472-.287 7.2-.577-.577-2.017.288-2.017-.864-1.152-1.153-2.59-.287-3.742.576-1.153 2.305 2.302 1.152 1.437 3.168-.287.576-.861.576-1.437.863 0 1.73-3.169 3.744-1.44 5.76-1.44.29-2.592-.863-3.168-1.15-1.152.576-2.592 2.016-2.88 2.879 1.438 1.152 3.742.289 4.894-.287.576.576 1.152 1.441.576 2.304-1.152 1.441-3.166.575-4.607.864v.863c-2.303.576-1.44 3.168-3.455 4.031.287 2.018-.866 3.745-1.153 5.186-.863 1.153-1.44 1.441-2.592 2.017.287 2.015-2.016 2.878-3.168 4.319-.29.863.286 3.17-1.73 2.593-.287.864.289 2.016-.576 2.303.865 4.897-4.893 4.61-4.03 9.217-1.153 1.439-2.017 3.455-2.306 4.896.577.287 1.443-.29 1.73.286.863.576.287 1.154.576 2.306-.863 1.44-2.305.576-3.457.863-1.15 1.152-1.15 2.879-1.15 4.608-.576.577-1.153 1.728-2.305 1.728-3.455 1.152-2.306 4.608-2.306 7.2-.576 1.153-.864 2.304-2.303 2.593.287.577-.289 1.729.576 2.016 1.44 2.88-2.018 2.88-2.592 4.607 1.151 1.728 1.44 4.319-1.152 4.895 1.152 2.015 0 5.183 1.152 7.201-.289 1.44-1.441 2.303-2.593 2.592.576 2.303-1.15 3.455-.575 5.47-.289.29-.865.577-1.441.29 0 .864 0 1.441.576 1.728l.002.006c-.002.028-.574 6.904-1.435 10.354 1.152 3.168-2.594 4.607-1.73 8.064 1.151 1.151-.287 3.745 1.152 5.184-.576.576-.577 1.728-1.153 2.304-1.152 4.031 2.016 7.776-.576 11.23 1.441 1.729 1.728 4.897.576 7.202-.864 1.726 1.44 2.015 1.153 3.744-3.744 3.74 1.439 6.623.863 10.365 0 .578 0 1.155-.576 1.155-2.015 7.195 3.167 12.385 2.593 19.299.574.57 0 1.437.287 2.304-2.305 4.031 1.44 6.617 2.881 9.79.574 2.303-.288 5.177.864 7.482.576 4.32 4.32 7.203 4.896 11.523 4.031 5.18 3.744 11.234 7.486 16.414 1.152 2.883 3.169 5.477 4.034 8.063 0 2.593 2.016 3.171 3.168 4.61 1.439 1.444 3.742 3.46 4.318 5.757.287 3.46 4.031 4.609 4.896 6.914.864 2.594 2.592 5.188 4.895 6.336 2.304 4.03 4.32 7.203 8.064 10.078 1.44.578.287 3.172 2.592 2.883.29 2.304 3.168 3.453 5.184 3.742.865.578 1.728.867 1.441 2.305 2.88 2.883 5.76 7.204 10.078 9.22 1.153 2.593 3.746 2.88 5.473 4.897 2.015.859 3.744 2.586 4.896 4.031 3.168 2.015 7.2 3.165 8.352 7.485 3.457-1.726 2.307 2.882 5.186 2.015 1.152 1.157 2.303 1.157 3.742 2.305.289 1.437 1.444 1.156 2.594.867 1.152 2.016 3.742 3.164 4.894 4.89 3.168 0 3.457 2.885 6.336 3.174-.576 2.305 2.018.29 2.307 2.016 3.455.29 6.045 1.437 7.486 4.32.576 0 1.152.29 1.44-.578 2.591-1.148 2.015 2.016 3.167 2.883 3.744-1.445 4.32 2.016 7.2 2.305-.287-.29 0-.29.289-.578 1.729-.867 1.728 1.437 2.591 2.015.577.29 2.305 0 1.729 1.149l3.744.289c1.153 1.735 3.168 2.883 5.47 2.883 1.442 2.016 5.187 1.726 6.626 1.726.863-.289.863.868 1.44 1.438 1.438.578 2.88 2.023 4.896 1.156.864 2.016 3.743 1.44 5.47 1.44 1.152 1.156 2.882 1.445 4.034 2.015 1.152 0 2.303-.57 3.168.578 2.879 0 4.607.578 7.775.578 1.152 2.305 4.607.289 6.336 2.016 2.304-1.445 6.048-.867 8.064.578 0-1.156.286-2.305.862-3.172.576.58 2.02.579 2.594 1.727 0 2.883 2.592 2.593 4.03 4.031 3.456-.571 6.337 1.445 9.792 1.445 1.152-.867 3.168-.289 4.61-.578 3.167 1.727 6.911-.867 10.655 0 2.303.29 4.319 4.61 6.91 1.149 1.729-.281 3.169 1.156 4.32 2.015 2.305.578 2.881-1.437 4.61-2.015 3.744 3.172 6.336.576 10.656 1.443 2.878 1.727 2.301-3.172 4.606-3.75 1.152 1.156 3.455.867 3.455 2.883 2.881 1.156 1.728-2.016 4.033-2.016 1.726 2.883 5.184 1.156 7.487 2.883l.865-.867c2.015 1.156 5.183 1.156 7.199 0 2.592.289 6.336 1.44 8.354-.858 2.879 1.438 4.894-1.445 8.062-.867 2.015-1.727 5.183-1.158 7.2-1.44 4.608-1.445 8.065-2.015 13.25-2.015.573-1.156 2.015-.867 2.59-1.445 1.73-2.305 4.609 0 6.05-1.727 1.726-.29 3.168 0 4.32 1.149.864-.571 1.729-.57 1.44-1.727.578-2.015 3.168-.86 3.457-.57.863-2.594 3.166-.867 3.74-3.172l.578.289c1.438.867 1.438-1.156 2.879-.867l.578-.86c2.016.29 3.17-1.726 5.186-1.156v-.57c.864-.867 1.152 0 2.304-.29 1.727-1.444 3.742.003 5.758-1.154 0-.289 0-.859.29-1.148 1.726-1.727 3.456-1.445 5.183-.29 1.442-.867 3.167-2.304 4.894-2.015 2.305-1.726 3.457-2.593 5.473-4.03 1.731.86 4.32.288 6.047-.58 2.882-4.03 8.066-2.882 11.523-5.757 1.438-.868 4.895.29 5.184-1.726.863-2.016 3.455-2.307 5.76-2.018 2.883-.29.576-5.188 4.029-5.188 1.442-.578 2.018 1.15 2.018 2.016h.865c0-.579.002-1.437-.287-1.726 2.304-1.437-1.155-3.172 1.15-4.61.864.29 1.729-.289 2.307.29 1.437 1.725.572 2.593.572 4.609h2.018c-1.153-1.726.576-3.172 1.15-4.899.863.29 2.594-.578 2.879.867-.574-2.882 3.17-2.304 2.885-4.609 1.727-1.727 3.452.86 5.472 1.148.285-.86 1.149-1.148.864-2.593-.29 0-.579.288-.864-.282.285-.578.286-1.445.864-2.015 1.726-2.015 2.015.57 3.453 1.437 2.594-1.438-.576-3.171.865-5.187h1.152v-.57c.286-.579.866-1.157 1.44-1.157 1.153.29 1.73 2.016 2.304 2.883 3.168.86 1.153-3.742 4.32-3.172.865-3.165 2.88-.29 5.473-1.437v-2.305c.575.289 1.438-1.727 1.727-.29h1.441c.863 0 .575-1.148.864-2.015 2.305.29 3.741-1.44 6.046-2.017 0-.29.29-.858-.285-1.147.574-1.445 2.88-.867 2.59-3.172 2.594 0 4.32-2.016 6.336-3.164-.863-1.734 1.727-2.594 1.727-3.46.289-.29.867 0 1.152 0 2.883 0 4.035-1.438 6.05-3.165l-.866-.289c-1.438-1.437.289-2.883 1.441-4.031 1.441-1.157 2.305.86 3.457 1.148-.578-1.726 2.305-2.875-.289-4.03.289-1.438.289-2.876 2.016-3.454 4.03 1.148 2.883-5.477 6.914-3.46.575-2.876 2.304-6.048 4.894-6.907.863-.29 0-2.015 1.442-1.445.863.578.863 1.445 1.152 2.015l.574-.57c-1.152-2.015 2.016-2.88 1.727-4.897 2.02-.289 0-4.033 2.883-2.595.863-1.148-.578-2.592.285-3.451 1.152-.58 2.305-1.729 3.746-1.729 1.44-2.594.289-6.625 2.879-8.93 1.73-.578 2.594 1.726 3.746.578l-1.73-1.445c-1.154-1.726 1.152-2.586.863-4.031 2.304-1.437 3.171 1.728 4.898 1.728 0-.28-.578-.57-.289-1.148-.864 0-1.438-.578-2.305-.578-.574-2.594 2.016-.86 3.168-1.727.29-1.726-2.015-1.437-1.152-3.453 1.44-.867 1.441-3.46 4.32-2.594.578-2.016-1.726-4.9 1.442-5.478-1.152-2.586 2.878-4.03 2.59-6.904l-1.73-.868c0-2.016 2.019-.86 2.597-2.882.575-.281.863.287 1.437.576 1.153-.578 1.73-.86 2.016-2.016l-2.016-.86c-.574-1.444.29-3.169.29-4.607 1.44-.867 2.303-1.445 4.03-1.156.29-.86-.285-1.148-.285-1.726.575-.578.575-1.149 1.438-1.149v-.578c0-.579-.289-1.727.863-1.438v-2.884c.29-.867 1.153-1.436 2.305-1.147.578 0 1.152-.578.863-1.156-1.438-.867-.574-2.305.29-3.164-1.153-4.04 4.03-4.32 2.015-7.492.578-.578 1.152-1.438 2.304-1.149-1.153-2.594.29-4.609.575-6.914-1.437-3.742 2.304-4.32 2.02-7.492.863-.859 1.148-2.015 2.015-3.453-.29-2.015 1.729-2.592-.576-3.744.289-.287.576-1.15 1.44-.862-.579-2.016.862-3.458.573-5.761-1.152-1.44-.574-4.32-.574-6.336 1.152-.865 2.305.287 3.168-.29-.289-1.15-1.73-1.439-2.594-2.302-.574-2.018 1.73-2.305 2.016-3.457 0-.863-.864-.861-1.438-1.15 0-1.727 2.016-2.305 3.457-2.881-.29-2.304.575-3.456-2.02-4.606.579-1.728-1.15-3.457.58-4.896-1.153-2.592 2.015-3.744 0-5.76.574-.289.863-1.728 2.015-1.441l-1.153-1.44c-3.742.864-1.152-3.742-2.879-4.894-1.152-2.592 1.438-2.88 2.59-3.745 2.015-2.303-1.437-2.016-2.015-3.455 1.44-.576-.574-1.154 0-2.306.863-2.302.578-5.182.289-7.774.863-1.153-1.727-2.592.289-2.592.575-1.728-2.016-2.304-1.73-4.033 1.73-4.319-2.305-7.488-2.016-11.808.578 0 .863-.575.863-1.15-.574-1.729-2.015-3.169-3.453-3.456-.29-3.17.863-6.912-2.594-9.217.29-.287.863-.576 1.441-.287 0-3.744-3.457-4.896-4.32-7.777.863-1.439-.863-2.304-.578-4.031-2.59-1.442-.574-4.61-2.59-6.05.29-2.878-4.03-1.728-2.879-5.183-2.305-1.153-1.44-4.32-3.457-5.76.29-3.743-3.457-4.03-3.457-7.777-3.168-.575-1.441-4.031-4.031-5.183-2.305 0-2.016-2.88-3.168-4.32-4.32 0-3.457-5.472-6.914-6.624-1.727-.576-2.59-2.591-2.879-4.32-.289-.287-.574 0-.574.289-1.442-1.441-.578-4.034-2.594-4.897-2.879.288-2.016-3.168-3.457-4.607-1.152-.289-2.88-.865-3.742.574-2.016-.863.574-1.727-.29-2.879-.288-2.016-2.59-1.44-4.03-2.304 0-2.303 2.879-.864 3.457-2.303-1.152-1.728-2.883 1.153-3.457-1.441-3.168.865-4.61-5.185-7.489-3.456-.289-.289-.574-.576-1.152-.576l-.29-4.03c-4.604-.866-7.485-4.61-10.364-7.778-2.015-.863-4.032-1.437-4.32-3.742-2.59 2.304-5.184-.866-7.489-2.018-.285-4.031-5.469 0-6.047-3.455-2.593-.29-2.593-2.59-4.031-4.318-2.88 1.439-3.457-2.594-6.047-1.731-1.152-.864.574-1.729-.578-2.303-1.152 0-2.016-.865-3.168 0-2.016.863-2.016-2.017-2.59-2.593-.578 0-1.441-.287-1.73.289-1.727-3.168-2.879 1.439-5.184 0-.289-1.73-3.742-1.152-3.742-3.168-1.152-1.152 1.438-2.305-.29-3.457-1.152.289-1.44 1.441-1.726 2.88-2.02.287-3.745-1.152-5.761-.576-.29-2.592-2.305-2.88-4.32-3.457-1.154-1.44-3.168-1.44-5.184-2.015-2.594-1.153-2.596 2.015-4.897.865.286-.577-1.73-.29-1.152-1.729-2.305-.864-1.44 1.727-3.455 1.15.289-1.727-2.018-.574-3.17-.863-1.441 1.442-3.167-.576-4.319-1.439-1.727-1.153-2.305.863-3.457 1.44-1.153-.864-2.59-2.017-2.304-3.456-1.437-1.729-2.59.288-3.742.288-1.152-2.592-4.031 0-6.047-.864-2.016.287-1.733 2.592-2.596 3.455.578 0 .578.29.863.576.867 1.73-1.152 1.442-2.015 2.018.289.864-.574 2.016.578 2.303 4.32 1.439 1.726 6.336 2.015 9.793-1.44.287-1.152 3.168-3.168 2.879 1.438 1.152 2.305 2.015 2.305 4.033 2.59 2.303.285 6.047 0 8.928-.289 1.152 1.155 1.152 1.729.576.289.577 1.15 1.152.86 1.726.579 1.152-.574 1.442-1.437 1.153-1.73 1.44.864 2.592.286 3.744-.285 1.729-2.88 3.167-.864 5.183 2.305 0 3.168 1.152 4.895-.287 2.305-.863 4.609.576 6.914.576-.578.287-.29.577-.29 1.153.579.577 1.444 1.152 2.307 1.726 2.016.865 1.442-1.15 2.594-2.015 1.438.576 4.032-.288 4.895 1.441 2.879 2.591 4.32-2.017 7.199-2.017 2.016 1.152-.574 2.016 0 3.455 2.305-.576 2.305 3.17 5.184 1.728 1.152 2.593 4.03.866 6.046 1.442 1.152.576 1.73 3.743 3.457 2.591l-2.015-2.017 1.441-2.018c4.031.29.574 5.186 4.031 5.186-.574 2.59 2.878 1.44 4.03 1.44.289-2.592 1.733.863 2.88-1.153.579 1.152 1.731 1.152 2.305 1.44.29-1.15 1.442-1.151 2.594-1.44 1.437 1.152 1.726 2.592.574 3.744.29.865.864 0 1.442 0 .289.289 1.15.576.861 1.152h.863c2.593-2.016 5.762.288 8.067 1.153 1.438-.865 1.726 1.44 2.304 1.728.574.574.574 1.727 0 2.592 2.59 2.303 8.063-.865 8.926 2.879-.289.576-.863.865-1.152 1.44l4.031 2.017c1.152.287 1.442-.287 1.73-1.15.576 0 1.153-.291 1.727.285.578 1.728 2.88 2.88 4.61 3.744-.864 3.745 2.59-.286 3.453 1.73.578.863 1.44 2.016.289 2.88l2.879 1.152c5.187-1.726 4.32 4.032 6.625 6.048-.575 2.881 3.168 2.016 4.898 2.016.575 1.152 2.3 1.44 1.727 2.88.864.578.288 2.304 1.726 2.017 1.152 2.305 5.473 2.591 3.746 6.046 1.727.29 2.879 2.305 5.184 2.594 0 2.015 3.17 2.015 1.728 4.031 1.73 1.152.863 3.169 3.168 4.032-.285 3.457 4.32 2.015 3.457 5.183 2.88.577.575 4.61 4.32 5.186-1.152 3.168 1.725 4.32 1.44 6.623 2.015.865 1.152 3.457 3.453 3.457-.285 1.153.289 2.016-.574 2.592l3.168 5.472c.289 0 .29-.287.574-.287l.867.864c.285.865-.867.863-.578 1.439s1.153.287 1.727.287c2.015.29 1.441 2.592 1.441 4.031 1.152 2.018-.574 4.033.864 5.762 1.152 1.439-.863 2.302 0 4.031 2.304 1.44 2.593 3.744 4.609 5.473-1.442 1.44-2.594 2.88-2.016 5.185 2.016 1.153-.578 4.897 2.016 5.473.575 2.016-.29 3.168-1.152 4.895-1.441 2.88 2.593 4.033 1.726 6.625-1.727 3.168 2.015 2.592.867 6.047-1.152 1.729-2.304 2.304-4.32 2.591.285 1.152.574 4.61 2.879 4.034.863 2.015.574 4.896 0 7.199-1.441.865-2.88 1.729-3.457 3.168 1.44 1.152 1.441 3.167.863 4.896h-.863v1.729h.289c-.29.864 1.727 1.44.289 2.015.864 3.168-2.303 4.32-1.729 7.198-2.016.578-.002 3.46-1.728 3.75.864 2.016-1.15 3.163-1.15 4.601.575 2.015-1.727 3.172-1.442 4.899 0 .578-.574.867-.863.867v6.336c-1.727 1.437-2.305 2.875-3.457 4.61-.574 2.874-2.016 5.179-2.59 8.062-4.031 1.148-3.746 6.336-4.898 9.789-.863.289-1.149.578-.864 1.726-.285.867-1.437 1.157-2.304 1.157-1.148.289 0 2.305-1.149 3.164v1.156c-.867 1.438-2.305 1.148-2.883 2.586.29 1.445-.285 2.305-.574 3.46-.578 0-.863.29-1.152.29-2.305 2.586-2.594 5.757-6.047 7.195 1.152 2.883-2.883 3.46-2.016 6.047 0 .289-.578.867-.867.867-1.438 1.148-4.03 1.437-3.168 4.031-.285 2.015-3.453 1.438-2.879 3.454-2.016.289-3.742 1.733-5.183 3.171 1.442 3.454-2.88 2.594-3.746 5.188-1.148 5.18-6.622 4.32-9.79 8.062-.289 4.89-5.472 4.61-8.351 6.907-2.016-.281-3.458 2.024-5.188 3.172.578.579 1.153 1.148.579 1.726-1.152 1.156-2.88.578-3.743-.289-1.73.578-.577 2.883-2.882 2.594 0 .867.288 2.017-.29 2.595-.574.29-.863-.289-1.148-.289-2.015-.578-2.883.579-4.035 1.727.289.867 2.02 1.438 1.441 2.883-.864.289-1.152 1.726-2.593 1.148-3.168-5.468-6.338 1.727-8.928 2.305-4.031-1.15-3.745 4.031-7.487 3.742.29 1.156 0 2.305-1.152 2.883-2.016-.867-2.878 1.726-4.894.867.863 3.453-4.031 0-3.457 3.453-1.726-.29-2.306 2.303-3.747 1.147-.863 3.46-4.315 1.157-6.335 2.595-.575 1.446 1.15 1.157 1.728 2.305 0 .578.863 1.438-.289 2.016-1.441.578-3.457.578-3.457-1.438-1.152-.289-2.877-.578-4.03 0v1.147c-1.151.289-2.015 1.445-3.742 1.156-1.73-3.172-2.882 2.593-4.898 1.148-.574 2.305-3.742-.57-4.605 2.016-1.152 3.75-5.184 2.015-8.067 4.031-2.016-1.438-3.168 1.156-5.469.29-.867.288-1.73 1.445-1.73 2.304-1.152-.578-2.016.867-2.59-.578-3.168.867-6.048 1.156-8.064 4.039-2.305.57-3.17-1.156-5.186-.578-1.153 1.727-4.032.58-5.184 1.728-2.594-1.437-3.167 3.743-5.761 1.438-1.437 3.46-4.605 0-6.621 2.015-.863 2.305-2.883-.288-4.899.579-2.015-.29-3.168.866-3.742 2.593-1.73-.289-3.166.579-4.607.86-1.727-2.586-3.17 1.156-4.897.867-.578-2.305-4.03-.289-3.457-2.883-3.457-2.305-2.878 3.172-5.183 3.75-2.305 1.438-4.031-1.445-6.047-.289l-.29 2.594c-.577 1.437-2.304.57-3.456.86-1.727-1.438-4.031-.58-6.047-.86-.863.28-2.305 1.438-2.592 0-1.153 0-2.016-.289-2.592.86-.865-.29-2.592.578-2.592-.86-1.44.86-3.457.281-4.61 1.437-1.44.29-1.152-1.437-1.728-2.015-1.15 0-1.726 0-2.591.578-.863 3.164-4.897-.578-6.05 2.875-2.014.289-2.302-2.016-4.318-2.016-1.44 1.156-3.743 2.305-5.76 2.594l-.576-.578c-1.152-.86-1.728-.29-3.167 0-2.015-1.438-4.897-.29-7.2 0-1.729-1.438-4.32-.29-6.049 0-2.59-2.015-4.896-3.453-8.064-4.031l-.576.578c-2.88-1.156-5.76 3.164-7.776-.578-2.88 1.156-5.183-2.305-7.2 0-1.727-.578-3.456 1.155-4.608-.579h-.861c-2.305 2.015-3.459-1.726-5.186-1.726-2.592.289-4.896-2.016-7.201 0-2.592.289-5.758-3.164-7.487 0l-.574-.578c-3.745 1.445-5.472-3.743-8.64-1.727-1.152-.289-2.592-2.016-3.168-3.164-4.033.86-6.913-2.883-10.946-.867-.863-.29-2.302-1.438-2.591-2.594-4.031-.28-7.2-1.437-10.08-4.031-.864 0-2.016-.289-2.592.289-1.44-2.016-4.897.289-6.05-2.875-3.167 1.438-4.894-2.023-8.062-2.023-4.03 1.156-6.336-4.891-10.943-2.586-1.152-2.594-4.033-4.32-6.912-3.75-.866-.86-2.016-1.438-2.016-2.297-1.442-2.304-4.897-2.305-6.049-4.899-1.439.86-2.591-1.437-4.607-.867-1.729-.289-.577-2.875-1.729-4.031-1.439-.29-2.88.289-3.457 0-.287-2.594-3.455-1.146-4.03-3.74-6.624 1.726-6.913-8.065-12.386-8.643 1.152-2.305-2.304-.578-2.017-2.594-4.607 1.727-2.88-4.609-6.912-3.164-1.726 0-.862-1.727-1.438-2.594l-1.152.579c-2.303-1.445-2.592-4.61-5.184-6.336-.289-1.157-2.882.29-2.017-1.727-1.153-1.734-2.88-1.734-5.184-1.734-1.729-2.305-2.593-6.625-5.185-8.352-1.151.29-1.727-.57-1.727-1.148-3.457.289 0-4.32-2.88-4.61-3.456.29-1.44-3.453-4.321-4.32 1.44-2.883-2.303-1.726-2.879-4.031 1.44-2.305-2.304-.578-1.441-2.883-4.895-2.305-4.32-9.789-8.928-11.805 1.728-4.32-2.592-6.914-2.592-10.656-3.455 0-1.44-4.032-3.744-5.477 3.744-2.875-3.456-4.601-1.729-9.21-1.727-.867-2.303-3.172-3.168-4.61.576-.868 2.016-.867 1.44-2.015-1.73-2.305-3.457-4.899-2.881-8.063h.576v-.867c-2.879-1.438.29-6.047-2.592-8.063 0-.579-.286-1.44.577-1.728-.29-.867.575-2.305-.864-2.594-.289-5.472 1.15-12.385-1.441-16.992 3.168-1.728-.577-4.607 1.152-7.2 1.152-1.727-1.153-3.742.863-4.894-.287-1.152.576-2.592-.574-3.168.863-2.305 2.016-4.32 1.15-6.912.577-.577-.576-2.305 1.153-2.016-1.44-3.168 2.304-4.32.865-7.488 1.726-1.44.575-3.744.864-5.473 2.429-.373 1.47-2.32 1.435-3.8l1.447-1.66s1.152-3.746.576-6.338h.866c-2.881-1.441.863-2.592.576-4.608 2.879-2.303 4.318-6.047 4.031-10.08.576-.577 2.016-.287 1.44-1.726 1.44-1.442 2.305-4.035 3.457-6.051 1.153-1.44 1.728-4.031 2.591-6.047 1.153-.866 2.016-3.457 2.592-5.186-.863-3.744 4.032-6.046 5.184-8.638.865-3.457 2.88-7.202 6.049-7.778-.577-1.44 1.152-1.152 1.44-2.015-.288-4.608 2.88-6.623 6.048-9.504.576-.287 0-1.729 1.15-1.44-.574-2.015 3.457-2.015 2.594-4.32-.576-4.32 4.895-1.44 5.47-5.184.867-.576.29-2.591 2.018-2.591 1.151-.576 2.88-2.017 2.592-3.744 4.894-2.88 7.486-9.504 13.822-11.233 1.728-1.44.865-3.744 3.457-5.183 2.592-.576 2.879-2.882 5.184-3.745.577-.576 2.018-.865 1.73-2.304 1.44 0 2.017-2.016 3.456-1.153.865-.864 2.88-.863 3.457-2.015 4.607-1.44 6.334-7.2 10.941-8.64 2.881 0 2.881-4.608 6.336-3.745 1.44-2.303 4.323-2.592 5.475-4.895 4.03 2.016 4.607-2.88 6.912-4.32 2.016.576 3.744-.576 5.183-.863 1.728-2.594 4.607-3.168 6.912-5.762.864 0 1.729 0 2.016-.863 2.015 0 3.457-1.44 4.607-2.592 2.304.577 2.018-1.728 4.034-1.152.863-2.592 4.03-1.73 6.047-2.88.865-2.017 2.879-.575 4.03-2.591 2.592.863 2.592-1.729 4.897-1.729 1.151-1.728 3.744-2.304 5.471-4.033 2.016 1.152.866-1.441 2.307-1.728.576-.29.861.287 1.15.576 2.016.574 5.183-1.152 6.912-2.88 4.031.575 5.471-3.458 9.791-2.306 1.44-1.153 3.458-1.152 4.897-2.302 4.32-.865 6.336-5.473 10.943-5.76 4.033-2.018 9.504-2.018 14.113-2.881 1.151-2.016 4.032-.864 5.47-2.305 3.458.576 4.609-3.17 8.642-2.017.576-1.44 2.305-.285 3.455-.574.576-2.88 5.183-.002 5.761-2.594 2.016-.287 3.166-4.03 5.471-1.438 1.152-1.439 2.881-.576 4.32-.865 3.744-2.016 9.504-.287 12.672-3.166 5.184-1.441 9.793-2.018 14.688-3.168.289 0 .576.287.576.574 2.879 2.305 4.03-3.168 6.625-.863l1.152-1.729 13.824-.287.575-.576c1.44 1.728 3.168 0 4.898.576.863-.865 1.727-1.439 3.168-1.152 1.148-2.015 2.59 1.153 3.742-1.152 6.914.865 14.688-.287 21.887 0v-.864c.578-.289.867-1.152 1.441-.865 1.726 3.744 4.608 0 7.487.576 4.032 2.881 6.912-2.302 11.521-.863 2.016 0 4.61.576 5.184 2.88 1.73-.288 2.88-1.728 4.61-2.017.284 0 0 .29 0 .866.573 0 1.152-.29 1.152 0l1.437-.866c2.305-.863 3.457.576 3.746 2.592 2.59.29 3.168-1.726 5.758-1.726.578 2.016 3.457 0 3.746 1.726.863 1.152 2.88.29 4.031.865v.287c.864-.287 2.016.29 2.305-.576 1.727-1.15 3.457.576 3.457 2.305 2.015.863 1.726-2.592 3.453-2.592 1.152.576.864 1.729 1.442 2.592.864 0 1.441 1.728 2.015.29.864.286 2.016-.29 2.594.573 2.3 1.152 3.742 1.442 5.469-.287l1.441 2.305c2.305 0 3.746 1.15 6.047.576.578 1.151 1.73 1.15 1.73 2.592 1.438 2.016 3.742-.576 5.758 0 2.305-1.442 3.746 1.44 6.051.863 1.726 2.305 5.47 1.152 7.2.576v4.897c2.304.287 4.32 0 6.046-.576 2.305-.865 1.727 1.726 3.168 2.591 1.152.287 2.594 1.152 3.457 0 1.726-.289 3.168.288 3.742 1.729 0 .863 0 2.016-.574 2.592.574.863 1.438 1.15 2.59 1.15 1.152 1.73 2.594-1.15 3.457-1.44.578-.862.578-2.015 1.441-2.591l.286-2.592c-.574-1.44-2.301-.864-3.168-2.016-.863-2.592 2.304-2.304 2.304-4.033.29-1.727-1.152-1.15-1.726-2.015.289-1.727-2.016-3.456 0-4.895.863 0 2.016.287 2.879.287.578-.576 2.013-1.44 1.728-2.592.574-1.729.285-3.746-.578-5.185 5.473-5.762-4.607-1.73-4.607-6.625 1.153-2.305 3.746-.288 5.187-1.729.285-.863 1.148-1.727.863-2.879 0-2.592-4.03-.576-3.457-3.744.864-.864 1.153-2.015 2.594-2.015 0-.577.574-2.016-.578-2.016-.29-1.442.578-1.729 1.441-2.305.575-2.305-2.015-4.03-1.441-6.336h2.594c.864-.289 1.726-1.154 2.015-2.306-2.016-4.031-5.761.001-8.64-1.15.289-1.44-.864-1.44-1.153-2.592-4.03 3.168-6.336-2.305-10.078-2.305-3.168-.29-2.883 4.607-6.34 4.607-.864-.576-2.59-1.728-1.437-3.457-1.442-4.608-5.473-.863-8.93-2.302v-.29c-3.743-1.153-7.488-2.591-11.808-2.015-.863 1.152-2.302.576-3.454.576-2.594-3.455-6.052 1.153-8.642-.863-2.015-.865-4.892-.29-7.486-.865-1.152-.287-2.594-.864-3.457-1.44-2.59-.576-4.606.577-6.336 2.016-.864-1.44-2.592-4.031-4.897-2.592-3.457 4.03-6.047-2.016-10.367 0-.868 3.168-3.746 0-5.473-.576-1.73-.576-1.73 1.152-3.746.576-1.152.576-1.726 2.016-.285 3.168-.868 2.304-3.746 1.728-5.473 1.44V2.9L365.184.309c-.468-.18-.872-.275-1.229-.301" style="fill:#007dc5;fill-opacity:1"/><path fill="#007dc5" fill-rule="evenodd" d="M308.157 75.187c1.152-2.881 4.895-1.73 7.777-2.016 2.016.287 3.453 5.184 6.336 2.016 1.438-.29 1.727.576 2.59 1.439 0 1.152-.285 2.592 1.152 3.168 0-.576.578-.576.863-.576 2.594 3.744-1.152 7.199 0 10.945-3.453 4.03 1.44 9.215-.863 12.959-.574 2.88-1.727 6.623-.574 8.64-.863 1.15-1.73 2.88-1.441 4.896 1.152 1.152 1.152 2.018.578 3.457.285 3.168.863 6.623-.578 9.79-.29 5.187.578 9.218.289 14.4-2.016 1.153.289 1.73 0 3.458-1.152 5.47-.29 10.654-.863 16.416-1.441 1.727.863 3.168-1.152 4.895 2.305 1.44 1.438 5.762.863 8.354.289 1.439 2.305 3.455 0 4.895.289 2.88-.29 6.336.574 8.64-1.152 1.153 0 2.306.289 3.169 0 5.473-.574 11.52.578 16.416-1.152 1.152.574 2.592.285 4.32-.863 2.016-1.438 4.03-.285 6.336-.29 2.305 1.727 6.336-1.73 7.199-4.605-1.44-5.184 4.896-10.367 2.594 0-.29-.574-.578-.863-.578-1.152.289-2.88 2.018-4.031.578-1.152-.578-1.441-2.018-2.883-2.881.289-2.016-2.59-4.033-.285-5.184.574-.29.285-1.152.285-2.018-1.727-.574.289-3.168-1.438-4.318-.578-2.592 1.727-4.896 0-7.201.574-2.592-1.152-4.895-.578-7.775 1.44-.863-.285-2.305 0-3.744.863-3.744-1.727-6.05-.863-9.793.578-.574 0-2.016-.29-3.168 0-3.455-.862-6.623 0-10.078-.573-1.152-1.151-2.594-1.151-4.32.578.287.867-.576 1.152-.865 0-3.168-1.152-6.623-.863-9.791-.863-3.168.863-6.336-.29-9.793 0-6.623-1.151-10.656-.862-17.566h.289c1.44-3.17-1.727-5.762-.578-8.93-1.148 0-.863-1.152-.863-1.727 1.152-.865 1.152-2.881 1.73-4.033-.867-1.44-1.152-2.592-.867-4.32 2.02-1.15-.574-2.016-.574-3.455-.574-5.473 0-11.52-1.727-16.705 1.152-3.166-2.016-5.184-.29-8.063 0-2.305-2.878-5.473 0-7.777-.573-1.727 1.728-1.727 2.59-2.592 1.73-1.727 4.899 0 6.337-1.727 1.729-.291 1.15 1.725 2.592 2.014m-95.904 33.408c4.896.576 9.217 1.439 12.96 4.318 0 1.152 0 2.594 1.153 3.168.287 2.305-.576 4.896.576 6.914-1.441 1.439-1.441 2.879-1.441 4.895 1.152.865-.863 2.592.289 3.168.576.289 1.152-.287 1.727-.576 0-.863 1.152-1.152 2.305-.863 3.457 1.729 4.896-3.168 8.928-2.016 3.168-.29 5.184-3.168 8.64-2.016 1.73-1.152 3.456-.29 5.472.287 0 1.152 1.44.863 2.018 1.729.576.863-.865 1.152-1.44 2.016.864.576 1.44 1.439 1.15 2.305l-2.59 2.303.289.289c-1.73 2.303-3.457 4.32-6.625 4.607-.863 1.439-3.168 2.305-4.607 2.88-1.44 2.88-4.607 2.017-6.336 4.032-2.881.576-4.607 3.455-7.488 2.879-4.32 2.018-1.152 6.912-2.881 9.793-.287 6.623-.863 15.264 0 20.447-2.303 3.744 0 9.504-1.727 13.248 0 4.32-1.152 8.928.863 12.672l-.576.576c1.729 1.729-1.44 2.88-.287 5.186-2.305 1.15 2.016 2.879-1.152 4.607.287 1.439-.576 3.744.863 4.896.865 2.303-2.303 3.742 0 5.47.289 2.882-.863 5.76 0 7.778-.863 1.15 0 2.592.289 4.03v15.84c-2.305 1.44 1.439 5.185-2.305 5.185.576 1.729-.863 2.592-.863 4.32h-2.594c0-.287 0-.576-.287-.576-.287 2.305-2.592.289-3.455 2.016-4.033 1.152-5.186-3.168-8.93-1.44-.287-2.88-4.318-2.015-3.455-5.183.287-2.016-1.73-3.168-.287-4.896-.576-1.73-1.73-3.744-.576-5.473-1.441-4.895 1.727-10.654-1.73-14.398.288-2.305 2.306-3.744.864-5.473 1.152-2.305-2.016-2.592-.287-4.607-.865-.576-.29-1.73-.576-2.305 1.439-2.305-1.44-3.455.576-5.473l-.576-2.303c.287 0 .863.287.863-.29.289-.575-.287-1.151-.863-1.151-.29-2.88.863-4.607-.576-6.91-.287-1.73 1.729-3.17 0-4.033.863-2.303 0-4.607.576-7.2-2.305-.575 0-2.304-.576-3.456.863-.863.287-2.303.287-3.455-2.303-3.457 2.88-6.05 0-8.928-.287-2.592.576-5.76-.863-7.777 0-2.592.863-5.76-.287-8.352-1.73.289-4.32 0-6.05 2.016-3.454 0-4.895 3.168-8.927 2.305-.576 2.305-4.031.287-4.896 2.592-3.744 1.152-6.047-1.73-8.641-3.168-.287-1.152.576-2.88-1.15-2.88-1.152.288-.29-1.44-1.152-1.728-2.016 0-2.881-1.152-3.457-2.881.576-2.592-1.44-3.455-1.44-5.473-.575-.863-.862-1.44-.862-2.592 1.727-2.88 5.76-1.727 7.488-4.031 2.592 1.439 3.168-2.592 5.47-1.44 1.73-2.015 5.187 1.44 6.05-1.728 1.152 0 2.305 0 2.879-1.152 4.609 1.152 8.064-2.88 12.098-2.88l2.592-1.728.576-17.28c-3.457-2.017 1.439-4.032 0-6.911l-.576-.576c1.727-.29 1.15-2.305 1.15-3.457 1.729 1.439 3.457-1.73 5.473-.287 2.592-2.016 4.896 1.152 8.064 0z" clip-rule="evenodd"/><path fill="#007dc5" fill-rule="evenodd" d="M130.462 175.409c2.592-1.15 6.623-1.15 8.928.865 1.439 0 2.016-1.152 3.168-.29 2.303 2.019 1.439 4.897 2.88 7.489-1.728 2.305 1.15 3.457-2.017 4.896 1.152.576.289 1.729.576 2.592-1.44.576 1.152 2.305-.576 2.88-1.15 1.728-.863 4.032-.576 6.337l.576.863c3.457-1.44.865-6.336 4.609-7.2-.576-2.591 3.455-1.728 2.016-4.32.863-1.728 2.879-2.88 2.303-5.183.576-2.305 4.033-1.73 4.033-4.32 2.016-.865 1.729.287 3.744 0 .576-.865 2.592-.29 3.455-.576 1.152 2.016 4.607.287 5.473 2.303 2.879-.574 5.76 1.152 6.912 2.88.576 1.153 1.729.577 2.592.864.863.576 2.303.576 2.016 2.305 2.305.287.287 3.168 2.016 3.457.289 9.79.289 19.008 2.016 27.936l-.863 2.592c3.457 4.896 1.152 12.959 2.016 19.008 3.168 1.439-2.303 4.32 1.44 5.76-.575 2.592 1.15 6.049-1.44 8.064 0 2.016 2.88 3.168 1.44 5.47-4.32 3.458 2.593 5.474.288 8.642 1.152 2.305-1.44 5.184 0 7.488.289.863-.287 1.439-1.152 1.729-4.32-1.73-9.791.287-14.4-1.73-2.592 0-3.744-2.304-5.184-4.03.865-2.592-1.73-4.61-.863-7.777l-1.44-1.15c3.169-1.73 0-4.033.575-6.338h-.574c1.439-2.592-2.594-3.742-.29-5.76-2.591-1.727.864-3.455-1.151-4.895 1.152-.576.576-1.73 0-2.305.289-.863 0-3.168-1.152-4.32.865-1.44.289-3.455.576-5.184-4.895-1.152 1.152-3.744-2.303-5.76-.576-1.73 1.439-3.168-.576-4.033.287-2.303.863-4.031-.576-5.76-.576-2.88.863-3.455-1.44-5.471 2.593-3.457-3.456-4.61-.864-8.064-.287-.863-1.152-2.305-2.303-1.44-2.018 3.169-5.186 5.185-6.05 8.64-1.728 1.152-2.015 3.457-2.591 5.184l-3.168 3.744c.287 2.88-1.152 4.896-.863 7.488-2.881 2.018 0 5.76-1.441 8.64-2.592 2.593 3.457 4.32-.576 6.05.865 2.016-1.727 3.742.289 5.184l-.29 2.879c-1.726 1.152 2.019 2.88-.575 4.033 1.44 1.439 0 2.879-.574 4.318.574.865 1.15 2.018 0 2.88.863.577.863 1.73.863 2.882 0 2.879.576 6.623-2.016 8.639-1.73.576-3.457 2.018-5.186 1.152-.574-1.152-2.016-1.152-3.168-1.152-1.15.576-1.727 1.44-3.168 1.152-.863-2.592-3.742-1.152-4.895-2.88-4.033-2.017-.865-6.911-3.168-9.792 1.439-3.168.576-7.2.863-10.656-1.152-.576-1.73-2.016-1.44-3.455l.577-.865v-17.28c-2.016-.862.576-2.304 0-3.743-1.73-2.592 2.016-6.912-.865-10.08.576-1.73 2.592-4.32.576-6.623 1.152-.576.576-2.305.576-3.168-.576-.576-1.152-2.305-.576-3.168 1.152-1.152.576-2.594.576-3.744l-1.73-1.441c0-1.727 2.019-2.303.866-4.031-.865-1.152-.29-3.455-.29-4.896.29-3.744 1.153-8.352-.575-12.096.289-.863.865-2.016 2.018-2.305.576 0 1.15.289 1.727-.287.865-2.305 2.88.287 4.896-.576 1.726.285 4.318-.58 5.47.859m-35.137 3.457c1.439.576 1.439-.863 2.88-.576 1.15 4.32 8.353 2.592 7.2 8.064 2.592.863.287 2.592.287 4.32l-2.88 2.016c.288.863 1.153 1.727.864 2.879-1.15.576-3.168.865-3.455 2.594.287 1.439 0 2.592-1.152 3.455-1.73-.863-3.744 2.016-3.744-.576-1.73-.287-3.455-2.592-4.896-.287-2.592-.576-2.016-4.033-4.607-3.168-2.016.287-1.73-2.881-4.031-2.305-1.73-.576-1.73-2.305-2.305-4.031 1.152.287 2.305 0 2.305-1.152-2.305-3.457 2.879-3.744 1.439-7.201 4.607.865 0-5.76 4.896-4.607 2.016-1.153 5.184-.864 7.199.575m-6.336 33.119c2.016 1.152 4.03-1.44 6.625-.576.574 2.018 2.879 1.152 4.03 2.018 1.153-.29 2.306.287 2.306 1.439 1.15 1.439 4.318-.576 4.318 1.729 0 .863-.287 1.727.865 2.303 1.439-.576 1.439.865 1.729 1.729-.865.576-.865 2.592-2.305 2.592-.29 2.305 2.592 5.184.576 7.777.287 1.727.576 3.742-1.152 4.607-.863 1.727 1.729 3.455-.863 4.03l-.576.577c4.607 2.016-1.152 5.473 2.016 8.064 0 1.439-3.168 2.016-1.44 3.455v1.729h-.288c-1.44 3.168 2.016 5.76-.576 8.064 0 2.303 1.439 4.607.576 7.199-.863 2.88.863 6.625-1.152 8.352-1.15 2.305 1.44 4.896-1.44 6.049-.575.863.864 1.152.864 1.729h.576c-.863 3.168 0 7.199-.863 9.502.863 1.445 1.729 2.883 1.439 4.609-1.727.289-1.727 1.727-2.88 2.883v1.148c-2.304.867-6.335 0-8.64 1.438-1.44-2.586-5.473-.57-7.775-2.016-4.033-2.875-4.896-7.484-4.32-12.094 0-.287-.576-.287-.863-.287.863-1.152.863-2.881.863-4.607l-.863-.576v-10.37H79.2l.863-1.438c-1.152-3.168 1.439-7.2-1.44-9.791 0-1.73 2.88-2.881.577-4.033 1.15-2.305-2.018-3.168.576-4.607-2.018-2.881 2.016-6.625-1.152-8.928 0-1.152-.576-2.881.576-3.457.863-3.744-1.152-8.063 0-10.943 1.15-2.305-3.168-3.457-.29-5.184 0-.576.29-1.441-.286-2.018h-.578l.863-2.592c-2.016-.863-.287-4.318-1.152-6.047.865-.29 1.44-.576 2.018-1.44-.576-.288-.29-1.151-.29-1.44 1.44-.576 4.897 1.729 5.474-.863 1.726-1.73 2.59 2.303 4.03.285m252.864 24.77c-.29 1.15 0 2.592 1.152 2.592.289-.576 1.73-.576 1.152-1.73 2.879-.862.863 3.169 3.457 3.169h2.305c-.29 1.439 2.879 2.305 2.3 4.32h2.02c-.866 3.168 1.728 6.336-.288 8.928-1.152-.29-1.73.576-2.594 1.729-1.727 1.15-.574 4.03-2.59 4.318-.863.576-.863 1.44-.863 2.305-2.305-.863-3.746 1.439-5.762 0-1.727 0-4.031-1.44-4.61-3.168-.862-2.88-4.32.576-4.32-2.592-2.59.287-1.726-3.168-2.878-4.607 0-2.592 1.73-4.61 1.44-7.488 1.439-2.881 4.606-5.184 7.2-7.775zm-34.27 30.814c2.016 1.152 5.184.289 5.758 3.168-1.727 1.729 2.016 1.44 1.152 3.744-.29 1.729 1.727 2.88 1.44 4.896h.575c.863 2.88.578 6.625-1.438 8.64.285.288.863.288 1.148.577-.574.863-1.727 2.016-1.727 3.744-3.168 1.15-.29 6.334-4.61 5.756-1.437 2.594-6.62-.57-6.046 3.75-1.727-.578-.863 1.438-1.438 2.016-2.883 2.875-6.051 6.047-7.777 9.789-2.592.867.289 2.305.863 3.742 1.152 1.156.578 4.03 2.594 4.609l1.148-.578c-.285 2.016 2.883.578 2.305 2.305 2.594 1.156 2.883 5.188 6.336 5.477.867 2.016 4.32 2.305 4.32 5.18 3.168.289 3.746 4.03 4.609 6.336 3.457 2.016.863 7.203 3.168 10.367.574 2.883-1.152 4.609-1.152 7.203.863.289.574 1.438.574 2.016-2.301 1.156 0 4.898-2.88 5.188-1.151.57-.862 2.016-.862 3.164-1.727 1.438-1.727 3.742-4.031 4.32 1.438 3.742-4.031 2.594-3.746 5.469-5.184 6.055-10.078 14.117-19.008 14.977-3.166-1.148-8.063-.57-9.791-4.602 0-4.031-7.488-6.914-2.016-10.086-.576-2.016 2.879-2.586 2.879-4.32 1.152-.281 1.729-.86 2.305-1.727.576-2.305 2.592-6.047 4.896-6.914 1.152-3.453 5.47-6.047 6.047-9.79 2.594-2.593 3.746-6.046 4.32-9.788-1.152-1.156-.574-2.594-2.016-3.461-.29-3.742-3.744-4.602-5.473-7.484-2.88 0-2.592-4.32-6.336-3.742-2.303-1.156-4.32-4.32-6.623-5.766.287-.86-.576-.86-.865-1.438h-1.44c.577-1.438-1.438-1.438-.575-3.164-1.44-.578-1.152-2.305-2.016-3.172.576-.29.576-1.148.576-1.727-2.016-1.156-1.44-3.742-2.592-5.188-.576-4.031 2.592-6.047 2.305-9.5.863-1.727 2.879-3.742 3.455-5.477-.287-.86-1.152-2.875 0-3.453 2.88-2.305 3.168-5.184 6.336-7.775.289-2.881 4.32-2.305 4.32-4.896 2.303-.287 3.744-4.32 6.623-2.592 1.152-1.152 0-2.592 2.305-2.881 0-2.88 4.609-1.44 4.609-4.607 1.438-.863 3.168-4.32 5.469-2.016.582 1.153 1.445-.29 2.023-.29m22.75 4.322c0 .576.578.865.863 1.152 4.03-1.44 7.488 1.729 12.387.576 2.59 2.016 6.62.287 8.637 3.168 2.02 2.016-2.59 3.455-.574 5.473-1.727 5.76 1.152 13.82-2.594 19.008.578 2.883-1.148 6.047.578 8.64.574 2.306-1.441 3.743 0 5.47v1.156c-1.152.57 0 2.305-.863 2.875 0 2.883-.578 5.477.285 8.64-.285-.288-.285 0-.574 0 2.016 1.728-1.727 2.595.574 4.032v2.016c-1.438.578.578 1.734.289 2.594-1.152 5.477 1.152 11.523-.863 16.992 2.305 2.305-.574 4.898.289 7.492-.29 0-.863.57-.863 1.148-.867 1.727 2.016 1.727.574 3.453-.574 4.32-6.047 1.156-7.777 3.75-2.59-.867-6.621-2.016-7.488-4.898-1.148.289-2.016-.29-2.59-1.148 1.727-1.156-.578-1.445 0-2.594-1.441-3.742 1.152-7.492-.578-11.234-.863-2.305 1.44-3.742 0-5.47.578-2.304-1.727-4.03-.285-6.046 0-1.445-2.883-2.594-.578-4.04-2.016-2.585 1.44-3.163-.574-5.468-1.152-5.758 1.152-12.961-.863-18.72 2.59-2.593-2.594-5.476 1.148-7.491.289-.86-.863-.281-.863-1.148-.574-.29-1.152-1.438-1.152-2.305v-.867h.578c.574-1.148.289-2.875-1.441-3.164 2.305-1.152-.863-2.881.863-4.32-1.438-1.73.867-4.32-.863-6.336 1.73-2.016-2.016-4.033.289-6.05l-.58-2.016c2.594-.287 1.73-4.607 4.609-4.32M175.39 289.745c1.439 1.44 5.184.865 4.607 3.744 1.44.574 3.168 1.73 4.607 2.02.865 1.438 1.44 4.32 3.744 4.32-2.592.57-.574 4.602-3.744 4.602-.287 1.734-.574 4.039-2.016 4.898-.576 0-1.73-.29-2.016.578.576.578.287 1.438.576 2.016-2.016 2.594-4.607-1.438-5.76 1.438-2.016.867-1.44-2.875-3.457-1.148-2.303-1.156-4.607-2.594-6.047-4.61-1.73-.577-2.305-2.593-3.457-4.03 2.592-1.727-.576-4.031 1.729-5.477 2.592-.86.289-6.332 4.607-5.18-1.15-4.033 3.457-.865 4.033-3.457h2.592v.286zm36.287 7.49v-.29c1.44 1.728 4.033-.577 4.896 1.728 2.016-.29 3.168 1.438 4.896 0-2.881 2.883 2.592 3.172 2.016 5.758 1.152.867-.287 2.594 0 3.75-1.152.57-.287.859 0 1.438.576 2.016-1.44 3.742-.576 5.469-2.592 1.734.289 4.32-.576 6.625l.576.578c1.439-3.164 2.305-5.188 4.607-8.352.576-2.016 2.594-2.016 2.305-4.32 3.744 0-.863-4.898 2.88-4.898.864-1.438 2.304-2.305 4.319-3.164.865 1.148 2.88-.29 2.88-1.445 1.73 0 2.593 3.46 4.032 1.445 2.018-.867 3.168 1.148 5.186.289 2.879.859 2.592 4.03 6.047 3.164 6.625 2.594 1.729 11.234 5.184 15.555 0 2.016-.287 4.32.865 6.047-2.305 8.063 2.303 14.398 2.879 21.89-.863 5.47 2.592 9.5 2.018 14.978 1.727 8.063 3.742 15.836 2.879 24.766.863 1.438 2.592 2.305 1.729 4.609 2.016.859 0 3.164 1.729 3.742.287 2.594.863 4.03.574 6.625-1.15 0-.287 1.148-.863 1.727-2.016.289-3.455 2.016-5.473.867v-.29c-4.318-1.444-10.08 0-13.535-2.304 0-2.305-2.88-3.172-2.305-6.047-2.592-3.461-2.016-8.641-4.031-12.102.287-5.47-2.592-9.211-2.592-14.688 1.439-1.438-1.152-2.586-.29-4.61-1.15-.28-.286-1.437-.575-2.296.865-.578.289-1.734.576-2.305-1.727-.578-1.44-2.305-2.016-3.461 1.439-3.164-2.303-6.625-2.016-10.367.576-4.031-1.44-6.047-1.44-9.79-.575-2.882-2.591-4.608-2.88-7.491-.287-1.148.576-2.586-.863-2.875-3.744.57-4.033 4.89-5.76 7.195.287 1.727-2.881 2.016-1.441 4.03-.863 1.157-2.88 3.75-1.727 5.478-1.152 2.594-1.73 5.18-2.592 8.063-.576 1.148-1.152 2.883-1.73 4.03.577 3.173-2.304 6.048-.288 8.93-.863 2.017-.863 5.18 0 6.915 0 1.727-2.592 3.164-.863 5.18 1.439 1.727-.576 3.172.863 4.898-1.727 1.438.865 2.883-1.15 4.32 0 1.148.574 2.305.863 3.164-.576 2.594 1.729 7.203-2.016 8.07-1.152-.29-2.018.28-2.592 1.148-2.881.289-4.32-.578-6.625-1.438v-.29c-3.744-1.155-7.2 2.017-8.928-2.882.287-2.594-2.881-4.898-.576-7.484.576-2.883-1.73-4.61-.863-7.203-1.441-.578-.865-2.594-.576-3.742.287-1.438 2.016-3.172.576-4.898-.29-2.594 1.152-5.758-1.441-7.773 1.729-2.594-.574-5.758 2.018-8.063 0-2.594-3.744-3.75-.865-5.766-.287-2.875.865-6.047-.863-8.352.287-4.031-.29-9.5.287-12.383 1.152-4.031-2.016-7.773-.287-12.094-.576-1.156-.863-2.594-.576-4.031l1.152-1.156c-.576-1.148-1.73-2.016-1.152-3.453 2.88-1.727-2.305-2.016 0-3.742.287-2.016-1.152-2.594-.863-4.32 2.016-2.016 4.607-3.742 8.063-3.461 1.726 2.015 4.318 1.155 6.91 1.155m-42.337 25.344c2.017-1.156 4.32.578 7.202 0 .863-.867 2.303-1.727 4.03-1.438.577 1.727 2.017 2.016 3.458 2.586 1.15-1.438 3.455-.29 5.184 0 2.303 3.172-6.912 4.03-.576 5.477-1.73 1.727-2.305 4.89-2.881 7.484 2.018 1.156-1.44 3.742.865 4.609-.576 2.016-2.018 4.03-.865 6.047-.287.578-1.44 2.594 0 3.172-2.016 2.586 2.018 4.03-.576 6.336-.287 2.875.865 4.89.865 8.063-1.441 1.148-.29 3.453-.865 5.469 1.44 1.156 0 3.75-.576 5.477.289 2.016-.287 4.32.576 6.047-1.15 1.727 2.594 3.164-.576 4.898 2.018 2.016-2.016 4.03.576 6.047-.863.859-1.15 2.016-2.592 2.875 2.016 1.445 2.88 4.898 2.592 7.78h.576c.576 2.017-1.727 2.306-1.152 4.603-1.44.867-1.15 3.172-1.15 4.898l2.879.867c-.576 2.875-3.168 3.164-4.895 4.89-3.457 1.446-7.488 0-10.945-.858-.287-3.742-4.031.859-4.32-2.594-2.016-.867-2.88-3.453-3.168-5.758-1.152-.578-.287-1.727-.576-2.883 1.152-.86 2.018-2.305.576-3.164 0-.29-.287-.29-.576-.29-.863-4.03.576-8.93-1.15-12.671 0-1.445-.865-3.172.287-4.61-.576-2.593-2.592-6.624 0-8.64-.863-1.148-.863-2.305-.863-3.742.576-.578 1.15-2.016.576-3.172-2.305-.29-.865-2.875-1.73-4.031-.288-.86 3.169-1.727 1.153-3.453.863-1.156.863-2.883-.576-2.883 1.439-2.305.287-5.47 0-7.773 2.016-2.594-.576-4.898-1.152-7.492 1.152-3.742.576-8.641.576-12.672-2.016-.86-.29-3.742-1.152-5.18l2.592-3.742c2.016-.578 3.457-3.461 5.473-1.156.86-1.15 2.3-.58 2.877.577m104.256-169.346c-.287-3.455-2.88-2.88-4.318-.576.574 2.018-2.594 2.594-2.018 4.896-2.016 0 0 2.305-1.727 2.88.576 3.745-3.744 5.76-4.033 9.216 1.152 5.473-4.607 7.777-2.592 13.824.576 0 1.439.289 1.729-.576 4.03-3.744 6.912-7.775 10.656-12.383.287-1.152.863-2.305 1.727-2.881-1.44-5.47 2.88-9.216.576-14.4m-12.096-15.55c1.152-1.441 2.88-.576 4.033-.865 1.15 1.44 5.47-.576 5.76 2.88 1.439 0 3.168-3.167 4.32-.862 4.318-.29 7.486 3.168 10.943 4.318 2.303 2.018 3.744 4.896 3.168 8.928 1.729 1.152.863 4.32 2.592 5.186-1.152 2.879-.576 6.623-2.592 9.504 1.152 4.607-1.73 8.064-4.607 10.367.863 4.033-4.896 2.88-4.61 6.336-4.03.576-4.894 4.033-8.638 4.896-.865 2.592-3.457.863-4.61 2.88-2.591.575-4.317 2.304-6.911 2.88-1.44.287-2.88 1.152-2.303 2.88.287 1.44-1.441 1.153-1.441 2.304-.863 1.44 1.44 3.457-1.15 3.744 2.879.865-.29 4.033 2.016 4.896-.29 1.152-2.305 3.168-.29 4.03.29 1.73 1.153 3.745 2.306 4.61.576.576 0 2.592 1.729 2.303 2.879-2.88 4.896-5.184 6.912-8.352 2.016.289 2.879-2.592 4.32-2.592 2.592-2.305 2.592-6.05 6.336-6.336 1.15-2.305 3.168-1.73 5.76-1.73 1.152.866 2.592.29 4.03.29-.575 2.879 3.458 1.15 2.593 4.32 2.594 1.439 4.03 3.455 3.457 6.623-.578 3.455-6.05 3.168-6.05 7.775-1.728 1.152-3.743 2.305-4.03 4.609-5.76.574-4.033 8.352-9.793 9.215 0 .576-1.152.865-1.73 1.44-1.15-.864-2.302.864-2.302 1.44-4.896-2.592-6.336 5.184-10.08.576-3.168-.576-7.2-.576-9.217-3.168-.287-1.73-2.88-.29-3.744-1.441-.863-1.727-2.592-4.318-4.895-4.318-5.473-2.594-2.881-9.217-6.336-12.385 0-1.152-.29-2.592-.865-3.168.576-2.016 1.152-5.184-.576-7.2.576-4.608-.287-10.655-.287-15.552 1.152-1.44.576-4.033 1.729-5.473-1.152-1.44 0-3.168.863-4.607-.576-2.305 0-5.184.576-7.488.287-2.305 1.729-4.607 2.016-6.623 1.152-1.441.576-3.744 2.592-4.033-2.88-2.305 2.305-3.455 1.439-6.047.576-3.168 4.033-4.033 5.186-6.912-1.441-.865.576-1.441.287-2.305 1.439-.287 2.88-.287 4.033-1.73v-1.438c.574.287.863-.576 1.15-.863v-1.152c1.152 0 2.88.576 3.457-.865-.29-1.44.863-2.016 1.729-2.592q.86.867 1.725.867m136.801 139.39c-1.441-.287.289-2.88-1.727-2.592.574 3.457-4.035 1.729-3.168 5.473-2.305 2.305-4.32 6.049-5.473 9.504-1.441 1.152-.863 3.168-2.305 4.03.289 1.73-2.016 3.169-.578 4.606-2.016 2.305-.574 6.336-2.59 8.352l.574.578c-.285 1.156-1.152 2.016-1.438 2.883 2.305 4.32-1.441 7.195-.863 11.234 2.879 2.875-1.152 6.906 1.148 10.078 0-.29 2.02-.578 2.594.289.289-1.734 1.152-2.305 2.305-3.461 2.879-.57 2.879-3.453 5.184-4.61.574-2.296 2.305-2.585 2.879-4.312 1.44-2.023 4.32-2.594 3.168-4.898 0-4.898-.574-10.367.289-14.398 3.168-3.75-2.305-6.051-.29-10.371 1.732-4.32-1.436-7.775.29-12.385m13.535-70.271c3.457-.863 5.184 2.305 8.64 1.729 2.595 0 2.306 2.305 3.458 4.03 1.152 3.169-2.594 6.05-.29 8.353v2.88c-2.015 7.489-1.44 15.265-3.167 22.753.289 0 .574.289.574 0-2.016 4.03 2.02 7.199-1.148 10.656-.29.863 0 1.729.574 2.016-.574 3.744 1.44 6.625-.574 9.504-.578 1.44 2.016 2.016 0 2.88-.578 1.728 1.438 2.593.574 4.608-1.152 2.016.863 3.744 0 6.049-.574.863-.863 2.303-1.727 3.168 1.438 5.184.574 11.23.574 16.988.863.578 1.152 1.734 0 2.594l1.44 4.03c-2.593 4.32 1.439 9.22 0 14.399-.862.578-.288 2.023-.288 2.883 1.44 7.773 0 16.125 0 23.617 2.016 1.727.863 5.188 1.152 7.773-.29 2.016-2.594 1.727-2.594 3.46-4.32 2.306-6.047-2.593-10.367-.866-.574-1.727-2.016-1.438-3.457-1.438l-3.168-2.305c.867-3.461-2.016-5.758-.285-8.641-1.152-1.156 1.438-3.172-.578-4.32 1.44-.867-.863-1.156 0-2.305.289-2.305-.574-4.61-1.438-6.336.285 0 .574-.29.574-.29.289-.858-.29-1.147-.863-1.726-1.152.289-1.152 1.727-1.152 2.594-2.594 3.742-5.473 6.625-6.336 10.945-1.152.28-2.305.57-2.594 2.016-.574 2.875-5.758 2.875-5.47 6.625-2.304 2.297-3.167-2.305-6.05-.867-.574 4.32-3.742-.29-6.047.578-2.594-2.016-6.047-3.172-6.625-6.336-4.605-2.305-1.438-7.781-4.605-11.234.863-2.016-.867-4.32-1.441-6.047 0-2.305 1.727-5.188-.29-6.914 1.153-.29.579-1.727.864-2.883-1.727-.86-.574-3.453-.863-5.18.289-.867 1.73-.29 1.73-1.727-.29-.29-.578 0-.867 0 .578-4.898.867-7.203 1.73-12.102-2.016-.86.574-1.727.574-2.875l.289-4.32c2.016 0 .574-2.305 1.727-3.17-.574-1.73 1.73-3.168 0-4.32-.574-3.744 4.609-2.592 2.883-6.912 1.727-1.15 3.168-2.592 3.453-4.895 1.73-2.305 2.305-4.896 4.609-6.625v-1.44c2.879-4.032 8.063-4.606 11.23-8.063 1.73 0 4.035-.576 5.184.287l5.762-2.88c.289-3.167-.863-6.911.863-9.792-2.59-2.88 1.44-5.76-.29-9.215-2.59-4.32.579-9.504-1.726-13.537l-.574-11.52c1.438-.863 2.016-2.303.574-3.455v-.865c2.016.289 4.03-1.44 4.895-3.168 3.174 1.154 7.49 0 10.947 1.154m58.754 39.744c-.866-.576-.577-2.88-2.593-2.305-1.727 2.305-4.031 3.168-4.895 6.336-1.152.865-3.746.289-2.883 2.594-.863.863-1.148 2.303-2.016 2.879v.863c.289 1.44-.863 1.44-1.438 1.729.574 2.592-3.746 3.744-1.441 6.049-.574.576-.574 1.439-1.441 1.439-.574 1.439-1.148 2.592-.863 4.32-2.305 1.729-.285 5.473-2.88 6.912 1.442 3.744 4.032-1.152 6.048-1.152 3.168-5.184 8.93-9.504 11.809-14.977 0-1.44.863-2.303 1.44-3.455.576-3.744 2.306-7.201 1.154-11.232m-5.761-16.992c2.879.863 6.914-3.744 7.777.863 2.879 1.729 6.91.578 8.063 4.609 1.73 1.152 3.168 2.592 4.03 4.03-.862 3.745 4.61 3.745 3.169 7.778 1.73 4.607 1.152 10.943.289 15.55-.29 4.034-5.184 4.034-5.184 8.065-2.88 4.03-6.047 5.184-8.352 9.504-.863.863-2.305.863-4.031.863q-2.16 2.592-5.184 3.457c-2.594-1.73-2.883 4.03-6.336 2.879-1.441 2.592-5.473 1.44-7.777 3.168-2.305 4.32.863 8.063.289 12.383 2.016 2.305.285 7.78 4.605 8.352 4.03-2.586 6.914-5.758 9.504-9.5 2.594-2.883 3.457-5.758 6.914-6.625 1.152-2.592 3.457-2.881 3.168-6.336 2.016 0 3.168-3.457 6.047-2.305 1.727-.287 3.742 2.88 5.184.576 1.152.287 2.016 1.439 3.168 2.016h2.016c-.574 3.168 3.168 4.322 1.152 6.916 1.44.57.289 1.438.578 2.297-.578-.86-.867.867-1.73.289-.285 2.883-2.016 5.477-3.168 8.063-2.88 1.445-4.031 4.609-6.621 6.055 0 2.016-2.883 1.727-2.305 4.32-2.305 2.586-6.625 1.438-6.336 6.336-1.73 1.148-3.746 1.148-4.61 3.453-.573-.29-2.015-1.148-2.593 0 .867 2.305-2.016 1.727-3.453 1.727-1.441 0-1.441-2.016-3.168-1.148-.863 1.438-2.594.289-4.031.859-1.441-1.438-3.168-2.875-5.188-1.438-1.438-3.453-5.184-3.172-7.488-5.47h-1.148c.285-1.444-.29-2.882-1.73-2.882-2.016.289-2.016-1.438-2.88-2.594-1.44-1.727-3.745-3.164-3.745-5.18-1.727-1.445-.574-4.32-2.88-5.766-1.151-3.164-1.437-6.906-1.437-10.078 2.016-2.88-3.168-4.607-.29-7.2-.577-1.438 2.017-2.88 0-4.032 1.153-2.303 0-5.76 1.728-7.2-.574-1.151-.29-2.591-.29-4.03 1.73 0 1.153-2.016 2.306-3.168-.574-.865-.285-2.305-.285-3.457 2.3-1.152.863-3.744 2.879-4.896-.29-4.895 3.742-8.64 4.03-12.672 2.595-.863.29-4.607 2.88-5.184-.285-2.592 4.32-2.303 3.168-5.473 1.152-.287 2.594-2.303 3.168-2.88.578-1.728.863-3.454 2.016-4.895 2.594-.287 4.898.863 6.05-1.73 3.742-1.148 5.183 2.02 8.062 1.73" clip-rule="evenodd"/><path fill="#007dc5" fill-rule="evenodd" d="M235.294 648.595c-.29-1.156-1.152-3.742-5.473-3.742-2.592 0-6.047 1.438-6.047 8.063 0 4.03 1.727 7.773 6.047 7.773 2.88 0 4.896-1.727 5.473-4.32h5.184c-1.152 4.898-4.607 8.352-10.943 8.352s-11.232-4.031-11.232-12.094c0-7.773 5.184-11.805 11.52-11.805 7.488 0 10.367 4.602 10.656 7.773z" clip-rule="evenodd" style="fill:#000"/><path fill="#007dc5" fill-rule="evenodd" d="M289.729 743.9h13.822v3.75h-18.719v-22.468h18.145v4.031h-13.248v4.609h12.384v4.032h-12.384z" clip-rule="evenodd" style="fill:#000" transform="translate(-4.034 -83.79)"/><path fill="#007dc5" fill-rule="evenodd" d="M343.868 656.946c0 1.438.867 3.742 5.184 3.742 2.594 0 5.188-.578 5.188-2.875 0-1.734-2.02-2.305-4.61-2.883l-2.593-.578c-4.031-.86-7.773-1.727-7.773-6.625 0-2.586 1.438-6.906 9.504-6.906 7.488 0 9.504 4.602 9.789 7.195h-5.184c0-.86-.574-3.453-4.895-3.453-2.016 0-4.32.859-4.32 2.875 0 1.734 1.44 2.023 2.594 2.305l6.047 1.445c3.457.57 6.625 2.016 6.625 6.047 0 6.625-7.777 7.484-9.793 7.484-9.215 0-10.656-4.891-10.656-7.773zm59.328 0c0 1.438.867 3.742 5.184 3.742 2.594 0 5.184-.578 5.184-2.875 0-1.734-1.727-2.305-4.605-2.883l-2.594-.578c-4.031-.86-7.773-1.727-7.773-6.625 0-2.586 1.438-6.906 9.504-6.906 7.773 0 9.789 4.602 9.789 7.195h-4.895c-.29-.86-.574-3.453-5.184-3.453-2.016 0-4.32.859-4.32 2.875 0 1.734 1.44 2.023 2.594 2.305l6.047 1.445c3.457.57 6.625 2.016 6.625 6.047 0 6.625-7.777 7.484-9.793 7.484-9.215 0-10.656-4.891-10.656-7.773z" clip-rule="evenodd" style="fill:#000"/><path fill-rule="evenodd" d="M430.27 627.86v-70.852h20.446v10.656h.289c6.336-8.352 12.098-12.961 24.19-11.516 10.083 1.148 12.673 4.03 18.724 10.078 4.895-6.336 10.94-11.813 27.645-10.078 15.844 2.016 20.449 11.516 20.738 22.75l-.29 48.96h-20.16v-48.671c-.288-5.188-5.472-7.203-10.366-7.492-11.23-.578-14.688 8.063-14.688 12.672v43.78l-20.734-.288.285-48.672c-1.438-4.898-5.184-7.203-11.52-7.492-7.2 0-13.824 4.03-13.535 12.672v43.492zm-259.777-70.851h20.449v10.656h.287c4.03-7.195 11.52-11.805 19.584-11.805 18.145 0 30.24 6.906 30.24 24.766v47.523h-20.16l-.29-42.336c0-6.055-.862-13.54-14.687-13.54-12.383 0-14.975 6.048-14.975 11.806v44.07h-20.16zm242.496 71.14h-20.734v-8.93h-.29c-5.472 8.64-12.097 10.656-19.007 11.516-11.234 0-29.664-1.148-30.527-24.477v-49.25h20.445v44.063c-.285 6.336-.285 14.117 14.688 13.539 12.387-1.148 14.402-7.203 14.69-11.805v-45.797h20.735zm-152.64-77.476-.287-17.57h20.736v17.57h11.232v12.96h-11.232v45.509c0 4.03.287 6.617 3.168 6.617l7.775.289v13.25c-3.168.867-6.336 1.727-9.791 2.016-3.457 0-6.625-.29-9.504-1.148-6.336-1.734-10.945-6.055-12.098-14.117v-52.414H250.27v-12.961z" clip-rule="evenodd"/><path d="M308.449 616.893h20.446v17.57h-20.446zm0 23.906h20.446v70.851h-20.446z" style="clip-rule:evenodd;fill-rule:evenodd" transform="translate(-4.034 -83.79)"/><path fill-rule="evenodd" d="M23.325 557.298v10.656c5.76-6.047 8.352-11.234 21.023-11.805 10.945-.867 18.145 4.89 22.176 8.352 14.689 13.82 16.129 44.352.865 58.172-6.336 6.047-11.81 7.773-23.041 7.773-10.656 0-14.975-4.031-21.023-10.078v43.492H2.589V557.298zm3.457 22.75c-1.441 2.883-3.457 8.063-3.457 13.828 0 5.758 2.016 10.945 3.457 13.82 3.455 5.766 8.928 7.78 13.535 7.78 4.896 0 10.367-2.015 13.824-7.78 1.439-2.875 3.455-8.063 3.455-13.82 0-5.766-2.016-10.945-3.455-13.828-3.457-5.758-8.928-7.773-13.824-7.773-4.607-.001-10.08 2.015-13.535 7.773m125.28-8.93c6.336 9.508 7.199 17.57 6.623 27.938h-52.127c1.439 9.797 7.775 16.133 15.84 16.703h2.305c6.047-.281 10.654-3.164 13.248-8.922h18.432c-2.305 9.789-9.793 16.125-13.537 18.43-4.607 2.305-11.807 5.18-17.855 5.18h-3.455c-6.625 0-18.145-3.164-26.496-13.242-6.625-7.781-7.777-16.992-8.354-22.758.289-9.79 2.594-19.578 9.793-27.36 7.775-8.062 16.703-10.077 24.48-10.937h4.607c12.095.57 21.599 7.484 26.496 14.968m-30.241-.57c-3.455 0-10.08 1.727-13.535 8.352-1.152 2.594-1.152 3.742-1.441 5.469v.867h32.832v-.867c-.287-1.727-.576-2.875-1.727-5.47-3.168-6.624-9.793-8.351-13.248-8.351z" clip-rule="evenodd"/><path fill="#007dc5" fill-rule="evenodd" d="M40.894 663.86H35.71v-22.47h11.232c4.607 0 7.775 2.595 7.775 7.204 0 2.016-1.152 7.203-8.064 7.203h-5.76zm4.607-12.101c4.033 0 4.033-2.297 4.033-3.453 0-2.016-1.441-2.883-4.61-2.883h-4.03v6.336zm49.537-10.367h12.383c6.625 0 8.064 4.32 8.064 6.336 0 2.594-1.44 4.609-4.031 5.477 2.016.859 3.168 1.438 3.168 5.758 0 3.453 0 4.03 1.152 4.609v.289h-5.762c-.287-.867-.574-2.016-.574-4.32 0-3.172-.29-4.32-4.033-4.32h-5.184v8.64h-5.184v-22.47zm10.944 10.086c2.88 0 4.32-1.156 4.32-3.172 0-1.148-.863-2.883-3.744-2.883h-6.336v6.055zm61.056-10.658c3.168 0 12.096 1.149 12.096 11.806s-8.928 12.094-12.096 12.094-11.81-1.438-11.81-12.094 8.642-11.805 11.81-11.805m0 19.869c2.879 0 6.912-1.727 6.912-8.063s-4.033-7.773-6.912-7.773c-2.592 0-6.625 1.438-6.625 7.773s4.033 8.063 6.625 8.063m302.686-19.87c3.168 0 11.809 1.149 11.809 11.806s-8.641 12.094-11.81 12.094c-3.452 0-11.804-1.438-11.804-12.094s8.352-11.805 11.805-11.805m0 19.869c2.883 0 6.625-1.727 6.625-8.063s-3.742-7.773-6.625-7.773c-2.88 0-6.621 1.438-6.621 7.773s3.742 8.063 6.62 8.063m52.419-19.298h12.383c6.625 0 7.777 4.32 7.777 6.336 0 2.594-1.152 4.609-3.746 5.477 2.02.859 3.168 1.438 3.168 5.758 0 3.453 0 4.03 1.152 4.609v.289h-5.758c-.29-.867-.578-2.016-.578-4.32 0-3.172-.285-4.32-4.031-4.32h-5.473v8.64h-4.895zm11.23 10.086c2.594 0 3.746-1.156 3.746-3.172 0-1.148-.29-2.883-3.457-2.883h-6.625v6.055z" clip-rule="evenodd" style="fill:#000"/></svg>