<svg xmlns="http://www.w3.org/2000/svg" width="634.04" height="408.18" viewBox="0 0 634.04 408.18"><path fill="#3d87cf" d="m312.534 245.978 35.522-87.962c16.916-.93 44.362 2.876 61.362 6.978l-36.538 90.499c-16.577-4.102-43.77-9.092-60.346-9.515"/><path fill="#fac705" d="m472.217 200.4-36.919 90.921c-12.348-10.15-46.179-29.433-62.418-35.819l36.538-90.499c16.534 5.879 51.847 23.598 62.8 35.396"/><path fill="#66c557" d="m508.376 116.174-36.242 84.24c-11.842-10.827-46.095-29.307-62.8-35.396l36.623-90.668c16.704 5.582 51.55 29.434 62.418 41.824"/><path fill="#f3632e" d="m348.043 158.07 36.03-89.018c16.873-.593 44.995 2.072 61.953 5.328l-36.622 90.668c-16.79-4.61-44.573-7.316-61.362-6.978"/><path fill="#3d87cf" d="m226.034 190.765-17.381-.296c1.184-3.51 2.706-7.442 4.186-10.741l17.55-.043a171 171 0 0 1-4.355 11.08m26.848 14.507-21.905-.127 6.132-14.886c7.232-.043 14.548 0 21.821.254zm36.376-3.681c-2.537 5.836-4.694 12.095-7.316 17.973l-24.654-.295 7.273-17.846 24.697.17m-86.608-28.691-12.645-.086a116 116 0 0 1 3.595-9.093c4.313-.043 8.627-.295 12.94-.126l-3.89 9.303m-22.843-18.51c-3.256.086-6.555.423-9.811.337l3.172-7.696c3.256-.169 6.512-.338 9.768-.338zm57.703 7.794-17.424-.21 4.187-10.7c5.92.17 11.841-.169 17.719.043l-4.483 10.869m26.741 14.722-21.737-.087 5.878-14.801c7.316-.043 14.633-.087 21.95.086zm29.338 13.965-24.74-.55 7.19-17.55 24.655.254zm-78.921-47.526c-4.23-.127-8.585.211-12.856-.043l3.89-9.6 12.603.338c-.93 3.002-2.241 6.301-3.637 9.304m-22.951-18.403-9.77.211 3.003-7.654c3.172-.296 6.597-.296 9.896-.296z"/><path fill="#f3632e" d="m261.218 103.507-17.465-.126 4.271-10.91c5.878.086 11.756 0 17.677.126zm5.089 14.723 5.878-14.97h21.779l-5.879 14.97zm51.315 12.992-24.74-.169 7.147-17.803 24.696.086-7.104 17.888m-79.137-46.77c-4.144.21-8.5 0-12.73.086l3.553-9.472c4.144-.338 8.542.168 12.73.043l-3.553 9.346m-23.06-18.516c-3.256.087-6.512.424-9.81.296l3.213-7.697 9.685-.465zm57.595 8.336c-5.836 0-11.672-.086-17.508-.337l4.314-10.7c5.878.087 11.755-.126 17.634.044l-4.44 10.995M299.759 89c-7.274 0-14.59.127-21.905-.086l6.09-14.886c7.315-.086 14.59.044 21.905.087zm29.122 14.183-24.57-.254 7.147-17.889 24.74.17zm-78.705-47.959h-12.771l3.763-9.6c4.314.211 8.543 0 12.814.253zm-22.843-18.621-9.811.423 3.045-7.739c3.256-.38 6.555-.21 9.81-.423z"/><path d="M214.991 220.645a481 481 0 0 1-20.764-.17l4.948-12.263c6.935 0 13.914.211 20.933.127zM373.809 84.67l-31.083.211 10.91-27.107c10.573-1.184 21.23-2.326 31.844-1.988zM239.566 8.78l-11.798.253L231.194.28c3.975-.086 7.95-.253 11.926-.253zm23.492 17.321c-5.244-.17-10.488-.127-15.774-.338l4.145-10.15c5.286.17 10.572-.086 15.858.254zm79.138 49.041-29.39-.126 8.542-21.357 29.434.254zm-55.104-14.94 6.385-16.154 25.923.043-6.512 16.281-25.797-.168m-1.299-14.833-20.806-.169 4.821-12.18c6.935 0 13.914-.253 20.933 0zm76.649 67.554c-10.361.253-20.765.423-31.167.466l10.149-25.078 30.998-.126-9.98 24.74m-11.692 28.795-31.083.424-.169-.087 10.065-25.077 31.336-.466-10.15 25.204M192.582 96.254l3.425-8.67 11.968-.422-3.51 8.922zm115.513 74.375 10.023-24.993 31.124-.381-9.938 25.035zm-80.654-56.403-15.773-.21 4.144-10.15c5.286.169 10.53-.087 15.816.253zm79.247 48.717-29.39-.21 8.457-21.23 29.475.254zm-29.338-14.507-25.67-.086-.211-.087 6.554-16.112 25.881.043-6.555 16.24m-27.173-14.829-20.764-.211 4.778-12.18c7.02-.086 14.083-.043 21.102.087l-5.117 12.306m77.407 65.712-.127.295-31.125.381 10.192-25.67 31.294-.337zm-11.692 28.905-31.21.761-.21-.087 10.36-25.416 31.083-.295-10.023 25.035M168.764 184.27c-3.932-.127-7.865.253-11.798 0l3.426-8.374c4.017-.338 8.035-.253 12.095-.423l-3.722 8.796m134.675 74.7c-10.403-.253-20.764-.338-31.21.508l10.869-26.981 31.336-.55zm-111.508-56.512-15.901.087 3.933-10.107c5.37 0 10.657-.17 16.028-.044zm79.463 47.85-29.264-.423 8.585-21.187 29.264.296zm-54.996-14.832 6.555-16.323 25.754.169-6.555 16.366zM492.245 120.83c-10.868-12.391-25.965-21.187-42.67-26.728l-26.134 64.66c16.662 6.132 31.378 14.548 43.22 25.331zm-33.915 84.366c-10.953-11.798-26.642-20.172-43.136-26.05l-26.557 66.056c16.197 6.386 31.378 13.956 43.728 24.106zm67.154-91.894-83.013 205.445c-21.526-29.348-58.951-47.872-96.547-54.891-12.94-2.368-25.923-4.145-38.863-4.652l10.868-26.727c16.577.465 33.197 2.41 49.775 6.554l26.812-66.435c-17-4.102-33.958-4.61-50.874-3.68l8.712-21.82c16.747-.338 33.535.718 50.323 5.328l25.881-63.984c-16.958-3.299-33.916-4.483-50.79-3.89l11.588-28.927c38.483-.168 83.014 10.573 114.56 36.115 7.993 6.343 15.352 13.364 21.568 21.567M0 327.445h5.025v-39.118l15.712 39.118h4.12l15.917-38.87v38.87h5.655v-43.683h-8.443L23.32 320.446 8.515 283.762H0z"/><path fill-rule="evenodd" d="M54.739 288.515h5.308v-4.75H54.74zm0 38.934h5.308v-32.437H54.74z"/><path d="M102.152 327.445h5.372v-16.434c0-7.439 4.402-11.997 11.246-11.997h.906v-4.813c-.7-.064-1.33-.127-1.954-.127-4.961 0-8.309 2.69-10.475 8.125v-7.19h-5.095z"/><path fill-rule="evenodd" d="M136.62 328.015c9.569 0 16.201-6.625 16.201-16.937 0-10.376-6.632-16.937-16.201-16.937-9.491 0-16.059 6.561-16.059 16.937 0 10.312 6.568 16.937 16.059 16.937m0-3.999c-6.143 0-10.263-4.749-10.263-12.938 0-8.252 4.048-12.938 10.263-12.938s10.333 4.75 10.333 12.938c0 8.125-4.183 12.938-10.333 12.938m68.59 3.999c9.562 0 16.201-6.625 16.201-16.937 0-10.376-6.639-16.937-16.201-16.937-9.498 0-16.059 6.561-16.059 16.937 0 10.312 6.561 16.937 16.059 16.937m0-3.999c-6.143 0-10.263-4.749-10.263-12.938 0-8.252 4.048-12.938 10.263-12.938s10.333 4.75 10.333 12.938c0 8.125-4.19 12.938-10.333 12.938"/><path d="M235.57 295.015c0-.368-.07-.807-.07-1.182 0-4.565 2.023-6.688 6.419-6.688.976 0 2.448.12 4.331.438v-4.006c-1.748-.311-3.49-.431-5.308-.431-7.262 0-10.68 3.807-10.68 11.622v.247h-6.356v3.504h6.356v28.933h5.308v-28.933h13.547v16.993c0 4.126 0 7.127 1.465 9.003 2.024 2.682 4.962 3.807 9.215 3.807 1.472 0 3.008-.184 4.473-.495v-3.999c-1.323.311-2.583.368-3.701.368-5.443 0-6.073-2.562-6.073-8.557v-17.12h8.515v-3.504h-8.515v-8.125l-5.379.502v7.623zm-144.806 11.27 5.018-.694c-1.182-7.318-6.066-11.452-12.903-11.452-9.484 0-16.045 6.632-16.045 16.965 0 10.454 6.207 16.965 15.21 16.965 7.255 0 12.343-4.006 13.738-11.21l-4.806-.807c-1.118 5.067-4.402 7.884-8.726 7.884-5.648 0-9.619-4.756-9.619-12.832 0-8.203 4.183-12.959 9.76-12.959 4.183 0 7.672 3 8.373 8.14m65.815 12.41c1.663 5.797 7.07 9.222 14.906 9.222 8.175 0 13.582-4.232 13.582-9.972 0-4.92-3.539-7.474-10.949-9.159-6.865-1.557-10.885-1.62-10.885-5.605 0-3.058 2.704-5.054 7.212-5.054 4.296 0 7.07 1.748 8.175 5.054l4.926-.934c-1.734-5.238-6.313-8.104-12.896-8.104-7.764 0-12.754 4.175-12.754 9.597 0 5.358 3.602 7.417 11.367 9.095 6.518 1.437 10.263 1.812 10.263 5.733 0 3.12-3.05 5.428-8.04 5.428-4.926 0-8.67-2.243-10.121-6.171z"/><path fill-rule="evenodd" d="M544.06 332.795c12.23 0 20.462 7.955 20.462 19.025 0 9.916-9.321 18.791-21.063 18.791-11.02 0-19.011-7.722-19.011-17.984 0-11.643 8.479-19.832 19.612-19.832m22.521 30.441v1.38c0 23.172-8.84 35.395-24.574 35.395-7.75 0-13.681-3.687-17.921-11.069l-8.472 2.88c4.48 10.61 13.681 16.145 27.235 16.145 20.093 0 33.895-16.717 33.895-44.271 0-24.786-12.464-38.97-32.925-38.97-9.201 0-17.793 3.687-23.243 10.029-4.48 5.188-6.9 11.65-6.9 17.87 0 15.105 11.99 26.287 27.722 26.287 11.14 0 20.334-5.648 25.182-15.677"/><path d="M572.19 389.525c5.082 11.876 15.974 18.444 30.505 18.444 9.442 0 17.914-3.34 23.852-9.335 4.961-5.075 7.502-11.416 7.502-18.791 0-15.797-11.982-27.093-28.933-27.093-8.833 0-15.613 3.114-20.214 8.762l1.451-26.633h42.374l.361-8.529h-50.117l-2.42 43.577 7.983 1.38c3.879-7.028 10.652-10.836 18.522-10.836 11.742 0 20.702 8.416 20.702 19.598 0 11.416-9.2 19.832-22.033 19.832-9.802 0-16.824-4.614-20.454-13.377zm-394.654 16.86 23.193-.035v-36.43c0-5.534 2.54-8.415 6.66-8.415 3.992 0 6.073 3.575 6.073 9.11v35.77l23.462-.036v-38.97c0-14.983-5.69-21.905-20.093-21.905-8.232 0-14.41 3.461-17.8 10.03v-8.416l-21.481.056zm202.794 0h17.312l8.882-33.102 8.069 33.102h17.553l19.895-59.275h-16.824l-8.84 29.861-7.743-29.861h-18.16l-7.503 29.054-8.592-29.054h-23.731zm-321.437-.03h23.901l11.069-44.929 11.43 44.929h23.42l22.62-78.633h-20.065l-12.039 45.304-11.798-45.608H85.653l-11.494 46.061-11.671-46.061H36.393z"/><path d="M172.822 327.715h-23.477v14.644h23.477zm0 19.37h-23.477v59.261h23.477z"/><path fill-rule="evenodd" d="M277.06 381.335c0 2.923.248 5.025-1.486 7.594-1.36 1.99-2.973 3.037-5.443 3.037-7.672 0-8.727-9.343-8.72-14.601.029-10.992 3.214-17.404 8.84-17.411 1.982 0 4.212.82 5.323 2.342 1.606 1.869 1.486 4.672 1.486 7.007zm24.135 24.998v-80.14h-23.83v25.352c-3.836-3.624-9.031-6.073-15.097-6.073-19.06 0-25.55 16.003-25.55 31.304 0 14.722 6.618 30.724 24.807 30.724 7.92 0 13.242-2.569 16.831-9.109h.248v7.942zm33.815-13.068c-5.825 0-9.597-5.315-9.597-16.42s3.744-16.42 9.569-16.42 9.583 5.315 9.583 16.42-3.73 16.42-9.555 16.42m-.042 14.92c20.263 0 33.739-12.605 33.739-31.34 0-18.855-13.476-31.34-33.74-31.34-20.15 0-33.745 12.485-33.745 31.34 0 18.735 13.596 31.34 33.746 31.34"/><path d="M443.09 389.365c3.496 11.784 14.99 18.303 33.223 18.303 20.115 0 32.352-9.038 32.352-21.049 0-4.926-1.996-9.158-5.867-12.358-4.75-3.893-10.37-4.692-17.241-5.839-11.862-1.946-17.78-1.486-17.737-5.145.028-1.968 2.378-4.113 7.12-4.113 5.874 0 9.618 1.933 11.869 5.599l19.237-3.093c-4.247-10.185-14.615-15.79-29.854-15.79-18.99 0-29.981 8.698-29.981 20.37 0 5.032 2.626 9.838 7.12 13.044 5.62 4.006 11.869 4.919 18.989 6.066 8.868 1.486 13.603 1.061 13.985 4.345.269 2.272-3.121 4.006-8.989 4.006-8.245 0-12.867-2.286-13.993-6.639l-20.235 2.294"/></svg>